PathFileType	4	(X/Y/Z)	C:/Users/beibeiliu/ov580/test_trc/User3\sequence.39_training_dense_right.trc
DataRate	CameraRate	NumFrames	NumMarkers	Units	OrigDataRate	OrigDataStartFrame	OrigNumFrames
120	120	20	19	mm	120	1	235
Frame#	Time	ThumbCMC			ThumbMCP			ThumbIP			ThumbTip			IndexMCP			IndexPIP			IndexTip			MiddleMCP			MiddlePIP			MiddleTip			RingMCP			RingPIP			RingTip			PinkyMCP			PinkyPIP			PinkyTip			BackHand1			BackHand2			BackHand3	
		X0	Y0	Z0	X1	Y1	Z1	X2	Y2	Z2	X3	Y3	Z3	X4	Y4	Z4	X5	Y5	Z5	X6	Y6	Z6	X7	Y7	Z7	X8	Y8	Z8	X9	Y9	Z9	X10	Y10	Z10	X11	Y11	Z11	X12	Y12	Z12	X13	Y13	Z13	X14	Y14	Z14	X15	Y15	Z15	X16	Y16	Z16	X17	Y17	Z17	X18	Y18	Z18	
0	0	135.057	-18.7537	20.4573	129.579	-6.15358	-5.68439	123.69	1.21451	-36.2009	117.531	10.7294	-50.0358	113.719	-33.2786	-53.4842	84.1603	-21.4239	-45.0715	90.3997	-21.6789	-16.0856	105.933	-48.3605	-52.6079	75.7307	-41.1164	-41.6586	90.6073	-47.2697	-5.48262	102.025	-67.406	-43.374	72.3716	-55.3988	-32.7555	87.7706	-51.931	-1.64368	101.878	-87.5394	-36.6829	76.2426	-73.5552	-36.8447	77.0526	-66.682	-9.66392	142.216	-80.0354	-0.709054	145.193	-81.3344	24.7112	151.964	-49.3706	10.6249	
1	0.00833333	129.835	-22.1999	27.5528	130.07	-1.35356	-0.906443	124.051	0.0376698	-32.2273	119.609	3.80968	-51.6493	120.378	-31.1899	-49.7495	85.7991	-26.6875	-47.789	83.3726	-27.3497	-17.0368	111.953	-53.8548	-51.6269	79.8111	-43.2537	-46.2831	84.0012	-47.7742	-6.23119	104.233	-70.3552	-42.3414	76.3457	-60.173	-33.0708	86.326	-53.7394	-0.247504	105.335	-84.1439	-35.2393	78.3597	-75.8863	-32.7982	79.695	-73.7073	-2.88985	143.482	-78.4578	0.0496381	147.054	-78.5398	32.8981	150.505	-46.3784	17.2791	
2	0.0166667	130.204	-18.7247	25.6873	129.835	-3.91041	-1.63837	125.43	-1.6438	-29.464	120.896	9.66749	-47.9991	119.55	-32.9531	-50.9826	87.7323	-28.2399	-49.8701	84.4178	-32.1686	-18.5249	114.433	-52.2413	-49.8395	79.654	-44.7392	-42.9757	87.4019	-47.2693	-5.94685	104.639	-73.473	-42.6901	77.5731	-59.4078	-34.0038	80.2205	-53.8105	-3.31808	107.847	-85.2962	-37.0409	82.0689	-81.7043	-37.9165	75.4963	-70.7677	-6.09011	144.945	-79.8105	0.506905	147.32	-77.9713	33.2291	150.6	-45.5514	17.7581	
3	0.025	132.803	-20.2055	22.6358	131.367	-3.48454	1.11322	122.68	-3.94484	-32.5443	115.516	3.64594	-49.5286	118.947	-34.1517	-50.4684	85.1661	-25.6976	-52.0541	88.4424	-27.8404	-18.3075	111.76	-50.3381	-51.2935	77.1779	-43.3324	-42.9492	89.2349	-48.62	-5.97269	102.819	-69.3953	-44.9932	75.9436	-67.1297	-35.4546	87.2912	-52.2621	-4.32373	104.839	-85.5055	-33.9105	77.2433	-76.9568	-31.6221	84.46	-68.5582	-3.3672	143.376	-77.3422	-1.41495	148.157	-78.0486	30.4768	151.943	-45.1364	12.1102	
4	0.0333333	132.059	-20.8989	23.5611	130.732	-8.45802	-2.70694	124.858	1.66868	-29.412	119.81	3.45804	-49.4032	120.719	-32.2859	-47.8678	85.7616	-29.5795	-46.8726	91.9414	-27.3213	-14.2764	108.971	-54.1787	-52.333	78.0983	-46.8714	-42.3543	87.8178	-48.1376	-3.74865	104.13	-69.9083	-43.9149	77.8922	-64.6296	-35.1701	86.078	-57.9275	-1.99536	105.722	-89.0198	-35.7034	78.8995	-81.1331	-32.5109	82.4482	-73.5645	-3.17043	144.632	-82.7081	0.016051	146.846	-79.3011	32.1297	151	-49.134	13.297	
5	0.0416667	134.431	-21.7372	26.3811	131.589	-10.0969	-2.74563	127.385	-2.58163	-33.5649	123.424	3.17846	-51.421	119.279	-37.26	-49.0288	89.6082	-23.2678	-49.725	88.9262	-24.9879	-15.5517	107.881	-51.1323	-52.4467	79.4018	-40.2243	-41.3891	92.6793	-47.3919	-3.76501	102.467	-73.4547	-43.8509	77.1483	-61.5123	-39.4496	85.3961	-52.0751	-6.99692	102.24	-88.4284	-34.9194	77.1594	-78.0251	-35.359	79.0729	-65.1174	-9.87554	139.77	-83.2649	-0.486111	143.912	-85.8657	29.8007	152.698	-53.2075	14.608	
6	0.05	132.498	-16.6631	25.3444	133.326	-6.55586	-3.02028	127.048	-4.6386	-33.4094	121.779	-2.6444	-54.9103	117.032	-37.7846	-50.7581	84.4749	-31.0585	-50.9446	89.6744	-38.6888	-14.6285	106.683	-56.4002	-53.5953	77.4983	-52.8825	-43.527	91.4812	-54.1655	-5.34261	106.452	-74.6806	-43.4274	76.7776	-69.9851	-36.2454	87.3233	-58.2914	-3.20483	106.495	-88.3211	-34.8566	80.7689	-82.5051	-35.1452	80.2257	-74.9576	-2.41098	143.542	-81.3406	3.21166	146.201	-81.5184	33.2026	150.05	-47.2745	14.5089	
7	0.0583333	133.498	-23.5946	23.0216	127.851	-11.0504	-0.907939	125.241	-4.11436	-33.6229	120.975	5.3923	-52.1667	122.583	-36.6542	-47.8657	89.7258	-23.397	-44.3279	94.7193	-28.2344	-12.8861	109.446	-56.5458	-51.512	78.9275	-43.9316	-40.8057	89.1543	-49.1547	-5.01863	102.641	-72.5375	-45.7467	73.9399	-60.5108	-38.952	75.5721	-47.9993	-9.22971	104.886	-87.1545	-34.233	81.0834	-78.0025	-41.7908	67.5333	-64.5434	-14.4808	141.743	-83.3244	-0.242632	141.353	-86.2462	33.0705	152.805	-52.2029	11.7455	
8	0.0666667	130.324	-25.6917	21.4996	128.893	-9.89372	-2.14628	127.281	-1.69863	-34.7764	124.625	7.81741	-52.6788	118.928	-34.1412	-52.625	85.4441	-28.9072	-46.8247	93.501	-33.1453	-13.6518	113.566	-56.1579	-51.847	80.9884	-47.069	-48.0586	89.2656	-47.8327	-5.01752	99.8614	-75.7826	-43.2636	75.3096	-64.871	-36.0923	81.4748	-59.9151	-1.66659	101.641	-93.092	-36.3719	79.3464	-78.2628	-39.7391	64.7108	-69.7038	-13.0461	141.678	-87.0475	1.55261	143.548	-82.2698	34.2745	148.498	-53.6357	15.1496	
9	0.075	132.31	-23.671	24.6706	129.409	-10.4893	0.78883	125.314	-5.90002	-31.4509	120.656	0.546327	-51.6092	118.406	-36.7576	-49.3726	88.7458	-23.5321	-47.4544	91.3048	-29.6242	-13.9783	113.571	-52.2877	-49.8639	79.1911	-43.0559	-41.2907	87.983	-47.9816	-6.0976	105.616	-72.3826	-42.4434	74.6942	-58.1849	-38.3607	77.5542	-50.1516	-5.89122	99.1032	-93.414	-31.7659	73.383	-76.0801	-36.3567	73.8294	-58.0459	-12.4532	139.615	-83.7289	2.51152	139.99	-90.379	32.7737	148.2	-57.0623	17.2095	
10	0.0833333	128.111	-25.4021	27.7612	124.825	-11.6324	-2.00062	115.977	-9.76556	-31.4216	108.889	-6.41877	-53.9353	118.309	-27.8065	-50.922	87.4046	-24.8799	-48.7218	92.341	-28.7214	-13.0471	107.983	-52.6772	-50.5039	77.5877	-39.7685	-42.4681	89.9651	-49.7535	-4.74136	98.4095	-73.5034	-45.9404	73.5065	-61.9019	-39.6533	84.3468	-53.2514	-5.59788	99.1195	-87.5911	-37.3547	75.582	-70.9606	-38.3905	71.4006	-65.7597	-8.6532	138.552	-82.8966	-2.09594	138.844	-85.8251	31.0323	147.933	-51.3624	15.2033	
11	0.0916667	130.54	-23.2019	22.3584	123.426	-11.4333	-2.34344	111.781	-14.2078	-29.4543	102.747	-15.3664	-49.9468	121.524	-29.2071	-50.1765	89.5465	-21.0596	-51.1675	94.1304	-17.5325	-16.5538	114.19	-48.7079	-54.1252	81.2739	-37.7968	-52.8058	84.6826	-40.3952	-14.5912	102.445	-62.8776	-47.7628	73.6732	-55.1316	-41.5225	80.3615	-47.8768	-10.3604	94.5729	-86.5608	-38.538	73.9255	-71.5528	-42.3851	65.8714	-52.4816	-14.6837	135.503	-84.6844	-4.41193	138.398	-86.7597	25.4129	147.974	-55.3825	10.4801	
12	0.1	128.383	-14.0937	28.5037	129.038	1.08256	-2.31952	116.389	-13.7389	-28.7114	102.912	-34.3277	-34.0053	127.074	-37.3681	-51.439	95.4881	-31.4943	-67.5476	82.4843	-27.9454	-37.0615	112.047	-54.0907	-51.6866	77.1971	-46.5882	-46.8893	79.4063	-49.4357	-9.00649	104.113	-68.2655	-44.449	76.4363	-65.0634	-33.4426	82.9458	-56.4116	-3.76343	103.68	-94.9698	-31.8582	79.8045	-84.3227	-33.2449	80.2361	-63.1798	-9.08914	143.933	-71.6046	-0.965978	146.334	-74.952	31.2348	148.984	-42.2299	13.9799	
13	0.108333	129.205	-18.5474	33.5472	135.009	5.07251	13.1291	121.394	2.50278	-18.2801	102.582	-17.7957	-27.1069	125.096	-29.7102	-47.46	98.084	-27.2042	-67.6075	78.2339	-30.9954	-41.4757	110.241	-45.1169	-49.1066	76.4294	-47.0232	-45.8524	82.9849	-51.2073	-7.23377	106.979	-69.1517	-43.8875	77.1937	-69.6016	-38.1746	79.9833	-63.4819	-5.75884	114.152	-81.8804	-31.9914	85.1867	-81.3315	-38.4384	80.7208	-79.202	-6.23944	146.055	-70.2674	4.04181	148.444	-72.5647	32.918	145.486	-40.0376	16.4197	
14	0.116667	133.484	-16.3062	28.9758	135.25	-1.17307	2.79881	121.899	-5.54452	-25.2373	103.409	-31.1172	-30.8009	120.926	-38.0928	-48.2545	90.206	-33.4153	-59.1609	73.4855	-31.7284	-26.1891	111.376	-56.2846	-47.3434	77.5607	-51.6581	-43.0278	83.0295	-49.1326	-7.73591	107.164	-75.9115	-40.6902	76.6259	-73.4789	-34.1532	81.8411	-57.5594	-4.18034	113.695	-92.8533	-28.0128	86.9241	-83.4881	-36.9359	77.1462	-80.2654	-10.7825	143.294	-79.2446	4.43743	146.727	-76.5419	37.9753	150.097	-41.5884	18.8804	
15	0.125	129.691	-18.9802	37.0418	138.717	2.95186	12.5763	126.403	1.29237	-17.4307	115.25	-0.430413	-37.3713	116.08	-30.0764	-48.6973	82.2881	-32.3401	-53.8267	73.3347	-31.2085	-21.4877	107.498	-50.8235	-49.1871	75.0197	-50.6288	-42.9179	81.1336	-56.8028	-2.48208	105.423	-75.283	-42.5284	76.1478	-73.0345	-36.3011	75.9228	-58.3486	-7.86114	112.881	-85.2961	-30.9805	84.9081	-82.2208	-36.3577	79.6039	-82.3763	-2.67315	146.578	-71.6963	-0.023269	148.535	-74.5889	35.2774	146.25	-39.5834	19.0093	
16	0.133333	129.002	-15.7374	18.6063	128.426	-3.78877	-8.32473	121.361	-6.16529	-37.5298	106.079	-20.3581	-54.9979	108.859	-42.8367	-55.1404	78.1021	-39.5019	-51.3811	81.3141	-32.1812	-19.0579	99.7852	-61.5922	-49.166	72.1468	-58.268	-35.1071	90.3308	-49.874	0.0661493	99.3445	-80.4123	-38.5562	71.6221	-71.8965	-24.5918	83.1187	-56.4715	0.167683	101.54	-95.7204	-32.6751	76.6576	-84.6442	-25.8415	81.4607	-78.6965	3.07368	142.561	-78.1975	-0.274117	146.936	-75.2342	28.8757	147.299	-43.5055	8.09919	
17	0.141667	127.781	-27.7565	24.0759	124.57	-9.64023	0.634094	117.775	-8.16917	-27.9788	111.533	-1.89891	-48.2979	116.729	-34.036	-47.9608	85.6385	-24.1557	-45.4163	83.8617	-26.4694	-13.9571	110.339	-53.1205	-50.314	77.3129	-44.2243	-40.7355	81.8471	-47.1718	-6.68102	104.785	-70.1499	-41.7343	74.8706	-61.4033	-36.3494	77.2774	-55.5586	-0.442382	100.2	-91.4633	-34.1983	76.2696	-75.9454	-35.9183	70.5187	-66.0394	-8.92202	140.505	-87.0928	-0.832451	140.59	-88.734	30.3842	147.839	-54.7212	17.8023	
18	0.15	125.732	-28.967	27.0782	122.769	-9.84524	-1.56718	116.466	-13.7435	-33.8847	107.986	-14.6232	-49.7855	121.844	-28.1908	-46.533	87.6574	-24.7375	-44.0149	91.5322	-33.1326	-12.5647	112.761	-47.8595	-49.6744	79.8194	-39.2879	-42.6566	85.4047	-47.2296	-3.11836	107.039	-66.4797	-44.0401	72.724	-59.8978	-34.6055	77.8111	-55.4963	-3.19048	101.147	-87.5167	-41.1157	76.4245	-76.5646	-39.9814	73.6713	-60.1087	-15.2855	138.909	-87.0001	-2.52125	138.695	-90.0981	32.0932	147.851	-53.174	16.3536	
19	0.158333	129.563	-24.7207	22.1319	121.571	-14.0389	-9.89593	111.384	-20.5983	-37.3781	97.6762	-39.1563	-55.1599	115.766	-43.7038	-52.117	88.2191	-28.8468	-50.6225	93.8278	-30.2575	-15.707	107.155	-57.8473	-53.7785	76.8615	-47.6892	-42.149	86.3574	-44.833	-7.32027	100.998	-77.1578	-40.5795	73.9891	-63.3364	-33.4203	86.1112	-54.6581	-2.13068	94.8305	-98.5122	-30.109	72.2381	-82.1022	-34.7169	67.0755	-60.4844	-15.6314	137.996	-84.359	2.08975	139.16	-87.6755	30.1179	149.594	-58.2371	15.3051	
